<svg xmlns="http://www.w3.org/2000/svg" viewBox="0 0 320 200" fill="none" stroke-linecap="round" stroke-linejoin="round">
  <line x1="30" y1="40" x2="150" y2="40" stroke="#1B1B19" stroke-width="5"/>
  <line x1="30" y1="160" x2="150" y2="160" stroke="#1B1B19" stroke-width="5"/>
  <line x1="52" y1="88" x2="76" y2="88" stroke="#1B1B19" stroke-width="5"/>
  <line x1="52" y1="112" x2="76" y2="112" stroke="#1B1B19" stroke-width="5"/>
  <line x1="64" y1="40" x2="64" y2="88" stroke="#1B1B19" stroke-width="5"/>
  <line x1="64" y1="112" x2="64" y2="160" stroke="#1B1B19" stroke-width="5"/>
  <rect x="118" y="52" width="34" height="30" rx="4" stroke="#1B1B19" stroke-width="5" fill="#FAF8F4"/>
  <rect x="118" y="118" width="34" height="30" rx="4" stroke="#1B1B19" stroke-width="5" fill="#FAF8F4"/>
  <line x1="135" y1="40" x2="135" y2="52" stroke="#1B1B19" stroke-width="5"/>
  <line x1="135" y1="82" x2="135" y2="118" stroke="#1B1B19" stroke-width="5"/>
  <line x1="135" y1="148" x2="135" y2="160" stroke="#1B1B19" stroke-width="5"/>
  <line x1="135" y1="100" x2="185" y2="100" stroke="#C28E0E" stroke-width="5"/>
  <polyline points="185,140 215,140 215,100 245,100 245,60 275,60 275,100 300,100" stroke="#C28E0E" stroke-width="6"/>
</svg>
